<svg id="Layer_1" data-name="Layer 1" xmlns="http://www.w3.org/2000/svg" viewBox="0 0 409.55 419.3">
  <defs>
    <style>
      .cls-1 {
        fill: #fff;
      }
    </style>
  </defs>
  <g>
    <path class="cls-1" d="M172.91,408.49c-1.18-.39-2.37-.88-3.55-1.28,1.18.1,2.66.4,4.34.69s3.55.69,5.52,1.09c-4.73-1.29-9.66-2.86-14.59-4.24-4.93-1.68-10.06-3.26-15.09-5.23a279,279,0,0,1-30.08-12.92c-9.77-4.93-19-10.36-27.62-15.78-2.07-1.38-4.14-2.86-6.21-4.14-.49-.3-1-.69-1.48-1s-1-.69-1.48-1.08c-1-.69-2-1.39-2.86-2.08-3.85-2.66-7.4-5.52-10.75-8.08-4.24-4.34-8.38-8.39-11.54-11.44-1.58-1.48-3.06-2.67-4.14-3.55a5.21,5.21,0,0,0-2.47-1.38c-.49,0-.59.49-.29,1.48a18.92,18.92,0,0,0,1.87,3.84c1,1.58,2.37,3.45,3.95,5.52a77.07,77.07,0,0,0,5.72,6.51c1.77,2.17,4,4.44,5.32,6,.69.89,1.48,1.77,2.17,2.66s1.48,1.78,2.27,2.67c1.58,1.77,3.26,3.55,5,5.42s3.65,3.55,5.52,5.33c1,.88,2,1.77,3,2.76s2.07,1.77,3.06,2.66,2.07,1.77,3.16,2.66,2.17,1.78,3.35,2.67c2.27,1.67,4.63,3.45,7,5.12s4.93,3.26,7.5,4.93c1.28.89,2.56,1.58,3.94,2.37s2.66,1.58,4,2.37c-2.07-1.28-4-2.57-6.11-3.95s-4-2.76-6-4.14a93.69,93.69,0,0,0,9.18,5.62c1.57.89,3.25,1.78,4.93,2.67s3.45,1.67,5.22,2.56L122.51,404a139.93,139.93,0,0,0,37.78,14.79c3.35.79,6.61,1.38,9.86,2s6.31.89,9.27,1.19,5.82.39,8.38.39h3.75c1.18,0,2.27-.1,3.35-.2,8.58-.79,11.25-2.36,9-4.14-1.18-.89-3.55-1.87-7-2.86-.89-.3-1.88-.49-2.86-.79s-2.07-.59-3.26-.89c-2.27-.59-4.93-1.18-7.79-1.87,0,0-2.46-.69-5-1.38-1.28-.4-2.46-.69-3.45-1a5.5,5.5,0,0,1-1.09-.29C173,408.49,172.91,408.49,172.91,408.49Z" transform="translate(-7.7 -3)"/>
    <path class="cls-1" d="M135.24,387a211.1,211.1,0,0,0,36.19,15.29l2.37,1.08-.4-2.46-.29.1c-12.23-.5-32.05-5.62-48.92-13.81,0,0-1.48-.69-3.06-1.38a20.28,20.28,0,0,1-2.07-1l-1-.49c-3-1.28-5-2-5.82-1.87-1,.09-.3,1.08,1.58,2.66a34.5,34.5,0,0,0,3.64,2.66c1.48,1,3.26,2,5.23,3.06,0,0,.59.3,1.38.79.4.2.89.49,1.48.79s1.09.49,1.68.79c2.27,1.08,4.63,2.17,4.63,2.17,2.77,1.48,5.82,2.76,9.08,4.24s6.6,2.66,10.16,3.94l2.66.89c.89.3,1.77.49,2.66.79,1.78.49,3.65,1.08,5.43,1.58a51,51,0,0,0,5.52,1.28c1.87.39,3.65.79,5.42,1.18,3.65.69,7.2,1.09,10.56,1.58,3.45.3,6.7.49,9.66.59a73.46,73.46,0,0,0,8.28-.29c1.19-.1,2.37-.2,3.46-.4s2-.39,2.86-.59c3.15-.89.49-2.07-.2-3.16.2-.39-.1-.79-1-1.18a23.16,23.16,0,0,0-4-1.18c-1.78-.4-4-.79-6.51-1.19s-5.23-.88-8.19-1.28c-11.83-1.77-22-3.25-23.27-1.87-2-.69-4-1.38-5.82-2,1.58.3,3.16.5,4.83.79a20.18,20.18,0,0,1-3.94-.19,51.78,51.78,0,0,1-5.62-1.09c-2.07-.49-4.24-1.08-6.41-1.68-1.09-.29-2.17-.59-3.26-1s-2.07-.59-3.06-.89c0,0-.69-.29-1.77-.69s-2.57-.89-3.95-1.48l-5.72-2.37s1.19,1.58,2.47,3.16,2.47,3.16,2.47,3.16a4,4,0,0,0,1,.29c.59.2,1.38.4,2.17.69l3.16,1-1.19-.89a244.75,244.75,0,0,0,36.79,8l8.48.79,8.48.39a8.52,8.52,0,0,0,2.57-.29c.49-.2.79-.4.69-.59-.1-.5-1.38-.89-3.85-1.58l-7.2-1.68,3.26.89a196.37,196.37,0,0,1-48.92-15.39,30.12,30.12,0,0,0-6.71-2.56C132,384.82,132.87,385.71,135.24,387Z" transform="translate(-7.7 -3)"/>
    <g>
      <path class="cls-1" d="M192.64,402.08a48.43,48.43,0,0,0,9.17,1.38,12.55,12.55,0,0,0,1.67-.19c-1.38-.3-3.35-.69-5.22-1C194.51,401.59,192.54,401.59,192.64,402.08Z" transform="translate(-7.7 -3)"/>
      <path class="cls-1" d="M203.48,403.27a13.2,13.2,0,0,1,1.58.29,2.77,2.77,0,0,0,.59.1c-.49-.1-1-.3-1.48-.39h-.69Z" transform="translate(-7.7 -3)"/>
      <path class="cls-1" d="M339.58,44.47a207.27,207.27,0,0,1,52.18,61.15,201.79,201.79,0,0,1,24.55,76.43,9.12,9.12,0,0,0,.79,3.36c.2.1.2-1.38,0-3a204.14,204.14,0,0,0-24.46-76.63,207.68,207.68,0,0,0-52.07-61.44c-1.48-1.09-2.66-2-3.06-1.88A8.9,8.9,0,0,0,339.58,44.47Z" transform="translate(-7.7 -3)"/>
      <path class="cls-1" d="M303.19,365.2c.89-.69.79-.89-.39-.5a19.87,19.87,0,0,0-3.45,1.88c-.79.59-.6.79.39.49A16.15,16.15,0,0,0,303.19,365.2Z" transform="translate(-7.7 -3)"/>
      <path class="cls-1" d="M302.6,344.88c1.18-.89,2.47-1.77,3.65-2.66s2.27-1.88,3.35-2.76,2.17-1.78,3.16-2.67,2-1.87,2.86-2.76a17.52,17.52,0,0,1,2.27-1.77c-.5-.1.19-1,1.77-2.57a173.69,173.69,0,0,0,37.28-53,158.29,158.29,0,0,0,10.36-31.16A152.06,152.06,0,0,0,370.85,213a3.7,3.7,0,0,1-.79-1.87c-.79-3.06-1.18-9-1.48-15.19l-.1-4.64a154.37,154.37,0,0,0-14.2-54.53c-.49-.79-1.09-1.68-1.68-2.57s-1.08-1.77-1.67-2.76c-1.29-1.87-2.47-3.85-3.75-5.92A169.53,169.53,0,0,0,331.5,106.8a160.76,160.76,0,0,0-18.35-16.27c.59.89.89,1.48.69,1.78-.39.19-1.38-.2-2.66-1a41.11,41.11,0,0,1-4.73-3.25c-1.68-1.38-3.55-2.57-5.33-3.85l3.75,2.86,3.65,3.06,1.77,1.48,1.78,1.57,3.45,3.26a14.91,14.91,0,0,1,1.68,1.87,152,152,0,0,1,14.2,15.39,156.83,156.83,0,0,1,34.71,82.64,142.17,142.17,0,0,1,.79,22.49l-.1,2.86a23.93,23.93,0,0,1-.19,2.76c-.2,1.88-.3,3.75-.5,5.62-.49,3.75-.88,7.4-1.57,11.15s-1.48,7.3-2.27,11c-1.09,3.55-2,7.3-3.16,10.75-1.08,3.65-2.56,7.1-3.84,10.56-1.58,3.45-3,6.9-4.74,10.25a14.5,14.5,0,0,1-1.77,3c-.5.4-.6.2-.2-.79a136.45,136.45,0,0,0,9.07-26,159,159,0,0,0,3.95-26.24,172.55,172.55,0,0,0-5.53-54.93c-.29-1.48-.78-2.86-1.18-4.24s-.79-2.86-1.28-4.24l-1.48-4.14-.69-2.08-.89-2.07-1.68-4c-.59-1.38-1.28-2.66-1.87-4-1.18-2.66-2.66-5.22-3.94-7.79a11.44,11.44,0,0,0-1.09-1.87l-1.08-1.87c-.79-1.29-1.38-2.47-2.27-3.75-1.58-2.37-3.06-4.83-4.83-7.2l-2.57-3.45-2.66-3.36-1.38-1.67-1.48-1.58-2.86-3.26a142.94,142.94,0,0,0-12.43-11.93c-2.17-1.87-4.44-3.65-6.7-5.42-1.09-.89-2.37-1.68-3.46-2.47S298,96.74,296.68,96c-2.46-1.48-4.73-3.16-7.29-4.54-1.29-.69-2.47-1.48-3.75-2.17l-3.85-2c-.59-.3-1.28-.69-1.87-1l-2-.89-3.84-1.77-4-1.58-2-.79-2.07-.69c-1.38-.59-2.76-1.08-4.14-1.68s-2.86-1-4.24-1.38l-2.07-.69-2.17-.59-4.24-1.18c-1.48-.3-2.86-.59-4.34-1l-2.17-.49a16.52,16.52,0,0,1-2.17-.4c-1.48-.19-2.86-.49-4.34-.69s-2.86-.29-4.34-.49c-2.86-.39-5.82-.49-8.68-.69l-1.09-.1h-3.25c-1.48,0-2.86-.1-4.34,0l-4.34.2-2.17.1-2.17.19-4.34.4c-1.38.2-2.86.49-4.24.69a134.64,134.64,0,0,0-110,107.1A136.58,136.58,0,0,0,85,202.76a135.13,135.13,0,0,0,1.48,22.89,132.84,132.84,0,0,0,14.89,43.19c.79,1.19,1.48,2.47,2.17,3.75s1.58,2.37,2.27,3.55c1.38,2.47,3,4.64,4.44,6.9l.49.89.59.79c.39.49.69,1.09,1.09,1.58.69,1.08,1.38,2.17,2.07,3.15l2.07,3c.69,1,1.28,2,1.87,2.86,1.28,1.78,2.37,3.55,3.35,5.13a47,47,0,0,1,2.67,4.34c1.48,2.66,2.27,4.74,2.17,6.12-.2,1.67-1.78,2.17-4.44,1.48a19.94,19.94,0,0,1-4.83-2,39.83,39.83,0,0,1-6-3.84c1.38,1.57,3,3,4.44,4.43a14.47,14.47,0,0,0,1.08,1.19c.3.29.69.79,1.09,1.18l1.28,1.28c1.78,1.78,3.55,3.46,3.55,3.46,6.9,6.5,13.22,11.73,16.87,15.78l2.66,2.66a36.39,36.39,0,0,0,2.66,2.56,61,61,0,0,0,6.21,6c1.19,1,2.47,2.07,3.65,3.06s2.57,2,3.95,2.95c5.22,4,10.65,7.4,14.2,10.36l-2.17.89,1.87,1c6.22,2.76,10.36,5,11.64,6.71l-1,1.58c-1.78,1.77-5.63,2.86-11.64,3.25,0,.79-.89,1.28-2.47,1.58a17.41,17.41,0,0,1,1.48,1.18c.49.4.89.69,1.28,1a6.69,6.69,0,0,1,1.48,1.78c.5,1.08-.1,2-2.36,2.56,2.86,1.18,2.26,1.87-1.48,1.48-1.29-.2-2.76-.49-4.34-.89h0c1.48.89,2,1.18,4,2.27,3,.89,4.73,1.38,4.73,1.38a73,73,0,0,0,8,1.87c1,.2,1.88.4,3,.69.59.1,1.19.3,1.88.4s1.47.29,2.36.39c3.06.69,5.53,1.38,7.2,1.88s2.66.69,2.66.69c6.71,3.65,6.81,3.65,5.63,4.93-.4.1-.89.2-1.38.29.69.1,1.28.2,1.87.3s1.08.1,1.48.2c.89.1,1.48.19,2,.19,1,.1,1.48.2,2.27.3,1.58.3,2.66.59,2.66.59.2.69.2.69,1.19,1a.6.6,0,0,1,.19.59c-3.25.79-3.25.69-3.35,1-.79.19-1.87.39-1.87.39-3.75.2-5.33.2-5.92.2l-8-2.47a6.47,6.47,0,0,1-1.58.4l-.19.1L192.34,400l1,.89-4.05-1,4.54,1.28c-4.83-.78-7.2-1.08-8.88-1.38s-2.66-.49-4.53-.79-3.85-.69-5.23-1-2.37-.49-2.56-.49a.8.8,0,0,1,.29.49c-2.56-.69-4.44-1.18-6-1.58s-2.77-.89-4.05-1.18-2.46-.79-3.94-1.28c-.79-.3-1.58-.5-2.57-.79s-2-.69-3.15-1.19c-.79-.49-1.48-.88-2.07-1.28a19.22,19.22,0,0,1-4.74-1.38c-1.68-.69-3.25-1.38-4.83-2.07-.4-.1-.79-.2-1.09-.3v.1c-1.77-.49-3-1-4.24-1.38l-.39-.2h0c-1.48-.49-3.26-1.08-6.12-2.17-1.38-.59-3.05-1.28-5-2.07-1-.39-2.07-.88-3.25-1.38s-2.37-1.08-3.75-1.77c-1.38-.89-2.66-1.68-3.84-2.47s-2.37-1.68-3.55-2.46c.69.59,1.38,1.18,2,1.67,1.28,1.09-.4.89.39,1.48a176.36,176.36,0,0,0,30.67,17,198.25,198.25,0,0,0,34.82,11.15,52.54,52.54,0,0,1,5.82,1.28,9.61,9.61,0,0,1,3,1.09c.2.29-.39.49-1.77.59a30.85,30.85,0,0,1-5.43-.5,166.12,166.12,0,0,1-38.66-8.67,175.17,175.17,0,0,1-37.77-18.64,179.76,179.76,0,0,1-32.54-27,171.25,171.25,0,0,1-24.36-32.15A209.17,209.17,0,0,1,28,284.13c.1.69.3,1.28.4,2-1.19-3.35-2.27-6.7-3.45-10.06a4.73,4.73,0,0,0-.4-1.08c.49,2.66,1.09,5.32,1.68,8l.89,2.66c.29.89.69,1.77,1,2.66A236,236,0,0,0,49.93,329a202.18,202.18,0,0,0,29.58,35c12.33,11.44,23.67,20.71,37.58,29,3.65,2,6,3.65,5.33,3.94s-4.34-1.18-7.89-3.15a194,194,0,0,1-34.82-23.08,192,192,0,0,1-29.29-30.18,185.66,185.66,0,0,1-20.91-33.93A163.61,163.61,0,0,1,18,273.38c-1.57-4.54-2.76-9.27-3.84-13.61-.5-2.17-.89-4.34-1.19-6.51s-.69-4.14-.78-6a.59.59,0,0,0-.1-.39c0,2.07.1,3.94.19,6-.29-1.78-.59-3.36-.79-4.84s-.19-2.86-.29-4.24c-.1-2.66-.4-5.32-.59-8.58a21.77,21.77,0,0,0-1.09,2.66c-.19-2.26-.49-4.43-.69-6.7-.1-1.09-.2-2.27-.39-3.35s-.1-2.27-.2-3.36c-.1-2.27-.3-4.53-.39-6.8s-.1-4.54-.1-6.81c-.1-4.53.19-9.17.29-13.71.1-2.27.4-4.53.5-6.8s.39-4.54.69-6.81c2.36-18,7-35.5,14-50.39.49-1.19,1-2.37,1.48-3.45a196.21,196.21,0,0,1,7.79-20.22c.69-1.68,1.68-3.36,2.47-5.13s1.77-3.45,2.76-5.13,2.07-3.45,3.06-5.13,2.07-3.55,3.35-5.22a41.32,41.32,0,0,0-2.47,3.45l-2.36,3.55-2.37,3.55c-.79,1.18-1.48,2.46-2.27,3.65A160.17,160.17,0,0,1,55.45,71.69l4.44-5C61.37,65,63,63.41,64.62,61.73c3.16-3.25,6.61-6.21,10-9.27C76.26,51,78,49.6,79.81,48.22l2.66-2.07c.89-.69,1.78-1.28,2.67-2,1.77-1.28,3.55-2.57,5.32-3.75s3.65-2.27,5.33-3.45A144.28,144.28,0,0,1,116.2,26.43c3.16-1.29,6.22-2.37,9-3.36a38.26,38.26,0,0,1,4-1.18c1.28-.3,2.47-.59,3.65-.89A202.68,202.68,0,0,1,231.3,3.55,214.3,214.3,0,0,1,256.35,6.8a229.83,229.83,0,0,1,24.45,6.41,203.66,203.66,0,0,1,23.58,9.37l5.72,2.86L313,26.82l2.76,1.58,5.52,3.06,5.42,3.35c3,1.77,5.33,3.94,5.63,4.63,0,.3-.5.2-1.38-.29s-2.08-1.18-3.56-2.07a206.27,206.27,0,0,0-66.86-26.73,210,210,0,0,0-35.9-4.24,200.07,200.07,0,0,0-36,2.17A171.52,171.52,0,0,1,218.77,6.8a193.23,193.23,0,0,1,30.08,3.26,203,203,0,0,1,29.39,7.69L281.89,19l1.77.59,1.78.69c2.37,1,4.73,1.88,7.1,2.86,4.64,2.07,9.27,4.14,13.81,6.61l3.55,1.77c1.18.6,2.27,1.29,3.45,1.88l3.45,2,1.68,1,1.68,1.08c2.17,1.38,4.33,2.76,6.5,4.24s4.15,3.06,6.22,4.64a201,201,0,0,1,52,56.51,208.29,208.29,0,0,1,27.62,72.68,204.61,204.61,0,0,1,.79,65.69c-.69,5.32-1.88,10.65-3,16-.69,2.67-1.38,5.23-2.07,7.89s-1.58,5.23-2.37,7.89a204.56,204.56,0,0,1-12.92,31.27A208,208,0,0,1,366.11,344a203.19,203.19,0,0,1-34.71,31.76c-1.58,1.18-3.26,2.27-4.83,3.35s-3.26,2.17-4.94,3.26l-5,3.05c-1.68,1-3.36,2.08-5.13,3-3.46,1.88-6.91,3.75-10.56,5.43-1.77.89-3.55,1.67-5.42,2.56s-3.65,1.48-5.52,2.27a196.71,196.71,0,0,1-22.69,7.59c-2,.5-3.94,1-5.91,1.39l-3,.69c-1,.19-2,.49-3,.59-2,.39-4,.69-6,1.08a27.73,27.73,0,0,1-3.05.5l-3.06.39c-2.17.3-4.24.59-6.31.69a50.92,50.92,0,0,1-5.43.1c-3.25-.1-5.52-.4-6-.89s.69-1.08,3.15-1.68c1.19-.29,2.76-.59,4.54-.88.89-.1,1.77-.3,2.76-.4s2-.29,3.06-.49a199.83,199.83,0,0,0,91.12-37.58l4.94-3.74,4.73-3.95,2.37-2,2.27-2.07,4.53-4.14a206.56,206.56,0,0,0,16.67-18.05c2.66-3.16,5-6.41,7.49-9.67.6-.79,1.19-1.67,1.78-2.46l1.68-2.57c1.08-1.67,2.36-3.35,3.35-5.13,2.07-3.55,4.34-6.9,6.21-10.55,1-1.77,2-3.55,3-5.42l2.66-5.53c.4-.88.89-1.87,1.29-2.76l1.18-2.86,2.37-5.62,2.17-5.72,1.08-2.86c.4-1,.59-2,1-3l1.87-5.82c.59-2,1.09-3.94,1.58-5.91,1.08-4,1.87-8,2.76-11.94.49-2,.79-4,1.09-6s.69-4.05,1-6.12l.69-6.11.3-3.06.2-3.06.39-6.11c.1-2.07.1-4.14.1-6.12v-6.11l-.2-6.21c-.1-1-.1-2.08-.1-3.06L410.3,193l-.5-6.21-.79-6.12a59.87,59.87,0,0,0-1-6.11l-1.18-6.12c-.4-2.07-.89-4-1.39-6.11l-.69-3.06-.39-1.48-.39-1.48-1.78-6c-.49-2-1.28-4-2-5.92s-1.28-3.95-2.07-5.92c-1.58-3.84-3-7.79-4.84-11.64a196.4,196.4,0,0,0-38.06-56.51c0,.2,0,.5-.1.6-.4.39-1.78-.2-3.65-1.48A199.62,199.62,0,0,1,367.3,87.67c2.46,3.16,4.73,6.51,7,9.86.59.79,1.08,1.68,1.68,2.57l1.57,2.56,1.58,2.57a20.67,20.67,0,0,1,1.48,2.66,187.8,187.8,0,0,1,25.54,62.82,179.3,179.3,0,0,1-5.72,93.79,175.37,175.37,0,0,1-9.07,21.7A196.6,196.6,0,0,1,380,306.12c-1.09,1.58-2.17,3.16-3.25,4.64s-2.17,3.15-3.36,4.63c-2.36,3-4.53,6-7.1,8.88l-2.17,2.86-1.08,1.48L361.87,330l-4.63,5.52c-3.26,3.55-6.41,7.1-9.86,10.46-1.68,1.67-3.36,3.35-5.23,4.93s-3.55,3.25-5.43,4.83l-5.62,4.54c-1.87,1.48-3.84,2.86-5.82,4.34a191.07,191.07,0,0,1-51.58,26.72,12.46,12.46,0,0,1-3.65.89c-.59-.1.2-.49,1.68-1a199,199,0,0,0,68.74-42.4c-3.75,2.26-6.21,3.25-6.51,2.26s1.48-3.84,4.84-7.59c-2.27,2-4.54,3.94-6.81,5.82s-4.73,3.75-7.1,5.52c-3.06,2.17-5.62,3.45-5.82,3.06s1.87-2.57,4.73-4.54a183.79,183.79,0,0,0,48.53-53.55,187.31,187.31,0,0,0,16.86-40A184.93,184.93,0,0,0,396.1,217c-1,3.94-2,6.8-3.06,8.08h0c-.59,4.34-1,8.78-1.78,13.12a175.26,175.26,0,0,1-6.8,29.69,169.31,169.31,0,0,1-12.13,28.2,172.93,172.93,0,0,1-17,25.94,166.33,166.33,0,0,1-21.5,22.68,176.17,176.17,0,0,1-53.65,32.85,172.36,172.36,0,0,1-30.57,8.77c-2.66.5-5.23,1-7.89,1.38l-7.89,1-8,.59c-1.28.1-2.66.1-3.94.2l-4,.1c-1.67,0-3.06-.1-3.06-.3s1.29-.49,2.77-.49a175.42,175.42,0,0,0,74-17h-.1c-1,.3-1.28.1-.29-.49a23,23,0,0,1,3.55-1.67c1.08-.4,1.18-.1.39.49a176.69,176.69,0,0,0,55.13-43.3,173.53,173.53,0,0,0,33.54-60.16A179,179,0,0,1,352.6,321.8a174.64,174.64,0,0,1-48.72,40.44L301,364.11c-1,.69-2,1.19-3,1.78-2,1.18-3.94,2.46-6.11,3.55a12,12,0,0,1-3.26,1.18c-.39,0,.4-.59,1.48-1.18s2.27-1.19,3.46-1.88a52.08,52.08,0,0,1-5.13,2.17,38.54,38.54,0,0,1-4.24,1.38c-2.47.6-4.15.6-4.24,0s1.48-1.77,3.84-3.25a40.11,40.11,0,0,1,4.14-2.37c.79-.39,1.58-.79,2.47-1.28s1.78-.89,2.66-1.38a178.67,178.67,0,0,0,51.19-39.45l4.44-5.42c1.38-2,2.66-3.95,3.94-5.82a175.22,175.22,0,0,1-36.19,34.22,168.3,168.3,0,0,1-44.09,22.19c-2.66.89-5,1.38-5.23,1s1.88-1.48,4.54-2.37a53.35,53.35,0,0,0,5-2.07c1.68-.69,3.35-1.38,4.93-2.17l4.83-2.37,2.37-1.18,2.37-1.28,4.73-2.57,4.64-2.76,2.27-1.38,2.26-1.48,4.44-3.06,4.34-3.25,2.17-1.58c.69-.59,1.38-1.18,2.07-1.68l4.15-3.45,3.94-3.65,2-1.77c.69-.59,1.28-1.28,1.88-1.88l3.84-3.74,3.65-4,1.78-2c.59-.69,1.18-1.38,1.67-2.07l3.46-4.14c1.08-1.38,2.17-2.86,3.25-4.24l1.58-2.17c.49-.69,1-1.48,1.48-2.17l3.05-4.44c1-1.48,1.88-3.06,2.86-4.54l1.39-2.27c.49-.79.88-1.58,1.28-2.36l2.56-4.74c.79-1.58,1.58-3.25,2.37-4.83A167.79,167.79,0,0,0,378,241.43a164.74,164.74,0,0,0-3.35-55.63c.29,2.27.59,4.64.69,7,.19,1.88.29,3.75.39,5.63s.1,3.74.2,5.52c0,.89.1,1.87.1,2.76v8.19c-.1,1.77-.2,3.64-.3,5.42l-.1,2.66-.29,2.67c-.2,1.77-.3,3.55-.5,5.32s-.49,3.55-.79,5.33l-.39,2.66a21.13,21.13,0,0,1-.49,2.56c-.3,1.78-.69,3.46-1,5.23s-.79,3.45-1.18,5.13-.79,3.45-1.29,5.13l-1.48,5c-.49,1.67-1.08,3.35-1.67,4.93-1.09,3.35-2.47,6.51-3.65,9.86a167,167,0,0,1-9.27,18.84c-1.68,3.06-3.65,6-5.52,9.07-1,1.48-2.08,2.86-3.06,4.34s-2.07,3-3.16,4.34-2.27,2.86-3.35,4.24-2.37,2.76-3.55,4c-2.37,2.77-4.93,5.33-7.5,7.89-1.28,1.29-2.66,2.47-4,3.75l-2.07,1.88c-.69.59-1.38,1.18-2.17,1.77-1.48,1.18-2.86,2.37-4.34,3.55s-3.06,2.27-4.54,3.35a6,6,0,0,1-2.66,1.39c-.3-.1.49-.79,1.68-1.68,1.48-1.09,3-2.17,4.34-3.26s2.76-2.26,4.14-3.45c2.76-2.27,5.32-4.73,7.89-7.2A159.91,159.91,0,0,0,339.58,314a170,170,0,0,0,21.31-35.9,154.15,154.15,0,0,0,13-65.38,168.46,168.46,0,0,1-13.81,63.11A157.14,157.14,0,0,1,322.42,329a19.64,19.64,0,0,1-4,3.16c0,.2-.2.49-.69.89A109.53,109.53,0,0,1,304,344.68a9.82,9.82,0,0,1-3,1.58A9.85,9.85,0,0,1,302.6,344.88Zm-239.26-26a7.3,7.3,0,0,0,.59,1.19c-.69-1.19-1.48-2.57-2.27-3.95l-.29-.79c-.1-.39-.4-1-.69-1.87a36.85,36.85,0,0,1-1.19-3.55,24.34,24.34,0,0,0,1.19,2.76C61.37,314.41,62.35,316.58,63.34,318.84Zm62.43,46.75h0c.69.79,1.38,1.38,1.87,1.88a6.87,6.87,0,0,0,.79.69C127.25,367.07,126.46,366.28,125.77,365.59ZM227.55,8.77a214.07,214.07,0,0,0-42.71,1.58,223.77,223.77,0,0,0-41.52,10c3.26-1.38,6.51-2.46,9.77-3.65l2.46-.88c.79-.3,1.68-.5,2.47-.79l5-1.48a196.39,196.39,0,0,1,32-5A210.29,210.29,0,0,1,227.55,8.77ZM96.68,362a97,97,0,0,1-12.14-14.4L79,342.71c-1.77-1.77-3.55-3.65-5.23-5.52a175.49,175.49,0,0,1-23.47-32.55c.3,1.78-1.18-1-2.07-2.36s-1.77-2.86-2.56-4.25a201.28,201.28,0,0,0,23.07,35.81A222.94,222.94,0,0,0,96.68,362Zm91.22,35.7a8.31,8.31,0,0,1,1.19.4l-2.77.59S187,398.33,187.9,397.74Zm4.34-1c-.59-.1-1.28-.3-2-.4A2.26,2.26,0,0,1,192.24,396.76Zm-17.85-4.24a18.06,18.06,0,0,0,2.47,1.08Zm-4.93-29.2s-1.78.69-3.65,1.38l-3.65,1.19,4-1c2-.59,3.84-1.18,3.84-1.18Z" transform="translate(-7.7 -3)"/>
    </g>
  </g>
</svg>
