<?xml version="1.0" encoding="utf-8"?>
<!-- Generator: Adobe Illustrator 21.1.0, SVG Export Plug-In . SVG Version: 6.00 Build 0)  -->
<svg version="1.1" id="Layer_1" xmlns="http://www.w3.org/2000/svg" xmlns:xlink="http://www.w3.org/1999/xlink" x="0px" y="0px"
	 viewBox="0 0 425.1 425.1" style="enable-background:new 0 0 425.1 425.1;" xml:space="preserve">
<g>
	<g>
		<g>
			<path d="M172.9,408.5c-1.2-0.4-2.4-0.9-3.6-1.3c1.2,0.1,2.7,0.4,4.3,0.7c1.7,0.3,3.6,0.7,5.5,1.1c-4.7-1.3-9.7-2.9-14.6-4.2
				c-4.9-1.7-10.1-3.3-15.1-5.2c-10.2-3.7-20.4-8-30.1-12.9c-9.8-4.9-19-10.4-27.6-15.8c-2.1-1.4-4.1-2.9-6.2-4.1
				c-0.5-0.3-1-0.7-1.5-1c-0.5-0.4-1-0.7-1.5-1.1c-1-0.7-2-1.4-2.9-2.1c-3.8-2.7-7.4-5.5-10.7-8.1c-4.2-4.3-8.4-8.4-11.5-11.4
				c-1.6-1.5-3.1-2.7-4.1-3.6c-1.1-0.9-2-1.4-2.5-1.4c-0.5,0-0.6,0.5-0.3,1.5c0.3,0.9,0.9,2.3,1.9,3.8c1,1.6,2.4,3.5,3.9,5.5
				c1.6,2.1,3.6,4.2,5.7,6.5c1.8,2.2,4,4.4,5.3,6c0.7,0.9,1.5,1.8,2.2,2.7c0.7,0.9,1.5,1.8,2.3,2.7c1.6,1.8,3.3,3.6,5,5.4
				c1.8,1.9,3.6,3.6,5.5,5.3c1,0.9,2,1.8,3,2.8c1,0.9,2.1,1.8,3.1,2.7c1.1,0.9,2.1,1.8,3.2,2.7c1.1,0.9,2.2,1.8,3.4,2.7
				c2.3,1.7,4.6,3.5,7,5.1c2.5,1.7,4.9,3.3,7.5,4.9c1.3,0.9,2.6,1.6,3.9,2.4c1.3,0.8,2.7,1.6,4,2.4c-2.1-1.3-4-2.6-6.1-3.9
				s-4-2.8-6-4.1c3,2,5.9,3.9,9.2,5.6c1.6,0.9,3.3,1.8,4.9,2.7c1.7,0.9,3.5,1.7,5.2,2.6c-0.7-0.6-1.5-1.3-2.2-1.9
				c10.7,6.2,24.4,11.7,37.8,14.8c3.4,0.8,6.6,1.4,9.9,2c3.2,0.6,6.3,0.9,9.3,1.2c3,0.3,5.8,0.4,8.4,0.4c1.3,0,2.6,0,3.7,0
				s2.3-0.1,3.4-0.2c8.6-0.8,11.2-2.4,9-4.1c-1.2-0.9-3.6-1.9-7-2.9c-0.9-0.3-1.9-0.5-2.9-0.8c-1-0.3-2.1-0.6-3.3-0.9
				c-2.3-0.6-4.9-1.2-7.8-1.9c0,0-2.5-0.7-5-1.4c-1.3-0.4-2.5-0.7-3.5-1c-0.5-0.1-0.9-0.2-1.1-0.3
				C173,408.5,172.9,408.5,172.9,408.5z"/>
			<path d="M135.2,387c11.7,6.3,23.8,11.3,36.2,15.3l2.4,1.1l-0.4-2.5l-0.3,0.1c-12.2-0.5-32.1-5.6-48.9-13.8c0,0-1.5-0.7-3.1-1.4
				c-0.8-0.3-1.5-0.7-2.1-1c-0.6-0.3-1-0.5-1-0.5c-3-1.3-5-2-5.8-1.9c-1,0.1-0.3,1.1,1.6,2.7c0.9,0.8,2.2,1.7,3.6,2.7
				c1.5,1,3.3,2,5.2,3.1c0,0,0.6,0.3,1.4,0.8c0.4,0.2,0.9,0.5,1.5,0.8c0.5,0.3,1.1,0.5,1.7,0.8c2.3,1.1,4.6,2.2,4.6,2.2
				c2.8,1.5,5.8,2.8,9.1,4.2c3.2,1.5,6.6,2.7,10.2,3.9c0.9,0.3,1.8,0.6,2.7,0.9c0.9,0.3,1.8,0.5,2.7,0.8c1.8,0.5,3.6,1.1,5.4,1.6
				c1.8,0.6,3.6,0.9,5.5,1.3c1.9,0.4,3.6,0.8,5.4,1.2c3.6,0.7,7.2,1.1,10.6,1.6c3.5,0.3,6.7,0.5,9.7,0.6c3.1,0.1,5.8-0.1,8.3-0.3
				c1.2-0.1,2.4-0.2,3.5-0.4c1.1-0.2,2-0.4,2.9-0.6c3.2-0.9,0.5-2.1-0.2-3.2c0.2-0.4-0.1-0.8-1-1.2c-0.9-0.4-2.3-0.8-4-1.2
				s-3.9-0.8-6.5-1.2c-2.5-0.4-5.2-0.9-8.2-1.3c-11.8-1.8-22-3.3-23.3-1.9c-2-0.7-3.9-1.4-5.8-2c1.6,0.3,3.2,0.5,4.8,0.8
				c-0.9,0.1-2.3,0-3.9-0.2c-1.7-0.3-3.6-0.5-5.6-1.1c-2.1-0.5-4.2-1.1-6.4-1.7c-1.1-0.3-2.2-0.6-3.3-1c-1.1-0.3-2.1-0.6-3.1-0.9
				c0,0-0.7-0.3-1.8-0.7c-1.1-0.4-2.6-0.9-3.9-1.5c-2.9-1.2-5.7-2.4-5.7-2.4s1.2,1.6,2.5,3.2c1.3,1.6,2.5,3.2,2.5,3.2s0.4,0.2,1,0.3
				c0.6,0.2,1.4,0.4,2.2,0.7c1.6,0.5,3.2,1,3.2,1c-0.4-0.3-1.2-0.9-1.2-0.9c11.9,3.6,23.5,6,36.8,8c0,0,4.2,0.4,8.5,0.8
				c4.2,0.2,8.5,0.4,8.5,0.4c1.2,0,2-0.1,2.6-0.3c0.5-0.2,0.8-0.4,0.7-0.6c-0.1-0.5-1.4-0.9-3.8-1.6l-7.2-1.7
				c1.1,0.3,2.2,0.6,3.3,0.9c-16.8-3-33.9-8.3-48.9-15.4c-2.4-1.2-5.3-2.4-6.7-2.6C132,384.8,132.9,385.7,135.2,387z"/>
			<g>
				<path d="M192.6,402.1c2.7,0.7,5.2,1.1,9.2,1.4c1-0.1,1.4-0.1,1.7-0.2c-1.4-0.3-3.4-0.7-5.2-1
					C194.5,401.6,192.5,401.6,192.6,402.1z"/>
				<path d="M203.5,403.3c0.7,0.1,1.2,0.2,1.6,0.3c0.4,0.1,0.6,0.1,0.6,0.1c-0.5-0.1-1-0.3-1.5-0.4c-0.4,0-0.4,0-0.4,0
					S203.8,403.3,203.5,403.3z"/>
				<path d="M339.6,44.5c21.2,16.8,39,37.6,52.2,61.1c13.2,23.5,21.6,49.7,24.6,76.4c0.2,1.8,0.6,3.3,0.8,3.4c0.2,0.1,0.2-1.4,0-3
					c-3-26.8-11.3-53.1-24.5-76.6c-13.1-23.6-30.9-44.6-52.1-61.4c-1.5-1.1-2.7-2-3.1-1.9C337.3,42.4,338.2,43.4,339.6,44.5z"/>
				<path d="M303.2,365.2c0.9-0.7,0.8-0.9-0.4-0.5c-0.9,0.4-2.6,1.2-3.5,1.9c-0.8,0.6-0.6,0.8,0.4,0.5
					C300.8,366.7,302.4,365.8,303.2,365.2z"/>
				<path d="M302.6,344.9c1.2-0.9,2.5-1.8,3.6-2.7c1.2-0.9,2.3-1.9,3.4-2.8c1.1-0.9,2.2-1.8,3.2-2.7c1-1,2-1.9,2.9-2.8
					c0.7-0.7,1.6-1.3,2.3-1.8c-0.5-0.1,0.2-1,1.8-2.6c15.3-14.9,28.3-32.9,37.3-53c4.5-10,8-20.5,10.4-31.2
					c2.4-10.7,3.6-21.7,3.6-32.5c-0.3-0.3-0.6-0.9-0.8-1.9c-0.8-3.1-1.2-9-1.5-15.2l-0.1-4.6c-1.3-18.8-6.2-37.4-14.2-54.5
					c-0.5-0.8-1.1-1.7-1.7-2.6c-0.6-0.9-1.1-1.8-1.7-2.8c-1.3-1.9-2.5-3.8-3.7-5.9c-4.7-6.7-10.1-12.8-15.7-18.7
					c-5.7-5.8-11.7-11.3-18.3-16.3c0.6,0.9,0.9,1.5,0.7,1.8c-0.4,0.2-1.4-0.2-2.7-1s-3.1-1.9-4.7-3.3c-1.7-1.4-3.6-2.6-5.3-3.8
					l3.7,2.9l3.6,3.1c0.6,0.5,1.2,1,1.8,1.5l1.8,1.6l3.5,3.3c0.7,0.6,1.2,1.3,1.7,1.9c5,4.7,9.8,9.9,14.2,15.4
					c19.6,24,31.6,52.9,34.7,82.6c0.8,7.5,1.2,15,0.8,22.5l-0.1,2.9c0,1-0.1,1.9-0.2,2.8c-0.2,1.9-0.3,3.7-0.5,5.6
					c-0.5,3.7-0.9,7.4-1.6,11.1c-0.6,3.7-1.5,7.3-2.3,11c-1.1,3.6-2,7.3-3.2,10.7c-1.1,3.6-2.6,7.1-3.8,10.6
					c-1.6,3.5-3,6.9-4.7,10.3c-0.4,0.9-1.2,2.3-1.8,3c-0.5,0.4-0.6,0.2-0.2-0.8c4-8.7,7-17.4,9.1-26c2.1-8.7,3.4-17.5,3.9-26.2
					c1.1-17.6-0.5-35.8-5.5-54.9c-0.3-1.5-0.8-2.9-1.2-4.2c-0.4-1.4-0.8-2.9-1.3-4.2l-1.5-4.1l-0.7-2.1l-0.9-2.1l-1.7-4
					c-0.6-1.4-1.3-2.7-1.9-3.9c-1.2-2.7-2.7-5.2-3.9-7.8c-0.3-0.7-0.7-1.3-1.1-1.9l-1.1-1.9c-0.8-1.3-1.4-2.5-2.3-3.7
					c-1.6-2.4-3.1-4.8-4.8-7.2l-2.6-3.5l-2.7-3.4l-1.4-1.7l-1.5-1.6l-2.9-3.3c-3.9-4.1-8-8.3-12.4-11.9c-2.2-1.9-4.4-3.6-6.7-5.4
					c-1.1-0.9-2.4-1.7-3.5-2.5c-1.2-0.8-2.3-1.7-3.6-2.5c-2.5-1.5-4.7-3.2-7.3-4.5c-1.3-0.7-2.5-1.5-3.7-2.2l-3.8-2
					c-0.6-0.3-1.3-0.7-1.9-1l-2-0.9l-3.8-1.8l-3.9-1.6l-2-0.8l-2.1-0.7c-1.4-0.6-2.8-1.1-4.1-1.7c-1.4-0.5-2.9-1-4.2-1.4l-2.1-0.7
					l-2.2-0.6c-1.4-0.4-2.9-0.8-4.2-1.2c-1.5-0.3-2.9-0.6-4.3-1l-2.2-0.5c-0.7-0.1-1.5-0.2-2.2-0.4c-1.5-0.2-2.9-0.5-4.3-0.7
					c-1.5-0.2-2.9-0.3-4.3-0.5c-2.9-0.4-5.8-0.5-8.7-0.7l-1.1-0.1H221h-2.2c-1.5,0-2.9-0.1-4.3,0l-4.3,0.2l-2.2,0.1l-2.2,0.2
					l-4.3,0.4c-1.4,0.2-2.9,0.5-4.2,0.7c-22.7,3.6-44.2,13.3-62.7,28.3c-12.5,10.2-23,22.4-30.9,35.8c-8,13.4-13.5,28-16.4,43
					c-1.4,7.5-2.2,15.2-2.3,22.9c-0.1,7.7,0.3,15.4,1.5,22.9c2.5,15.1,7.4,29.7,14.9,43.2c0.8,1.2,1.5,2.5,2.2,3.7
					c0.7,1.3,1.6,2.4,2.3,3.6c1.4,2.5,3,4.6,4.4,6.9l0.5,0.9l0.6,0.8c0.4,0.5,0.7,1.1,1.1,1.6c0.7,1.1,1.4,2.2,2.1,3.2
					c0.7,1,1.4,2,2.1,3c0.7,1,1.3,2,1.9,2.9c1.3,1.8,2.4,3.6,3.4,5.1c1.1,1.6,2,3.1,2.7,4.3c1.5,2.7,2.3,4.7,2.2,6.1
					c-0.2,1.7-1.8,2.2-4.4,1.5c-1.4-0.3-3-1-4.8-2c-1.8-1-3.9-2.2-6-3.8c1.4,1.6,3,3,4.4,4.4c0,0,0.4,0.5,1.1,1.2
					c0.3,0.3,0.7,0.8,1.1,1.2s0.9,0.9,1.3,1.3c1.8,1.8,3.6,3.5,3.6,3.5c6.9,6.5,13.2,11.7,16.9,15.8c0,0,1.3,1.3,2.7,2.7
					c1.3,1.4,2.7,2.6,2.7,2.6c1.8,1.9,3.7,4,6.2,6c1.2,1,2.5,2.1,3.6,3.1c1.3,1,2.6,2,3.9,3c5.2,3.9,10.7,7.4,14.2,10.4l-2.2,0.9
					l1.9,1c6.2,2.8,10.4,5,11.6,6.7l-1,1.6c-1.8,1.8-5.6,2.9-11.6,3.3c0,0.8-0.9,1.3-2.5,1.6c0.5,0.4,1.1,0.8,1.5,1.2
					c0.5,0.4,0.9,0.7,1.3,1c0.7,0.7,1.3,1.3,1.5,1.8c0.5,1.1-0.1,2-2.4,2.6c2.9,1.2,2.3,1.9-1.5,1.5c-1.3-0.2-2.8-0.5-4.3-0.9l0,0
					c1.5,0.9,2,1.2,4,2.3c3,0.9,4.7,1.4,4.7,1.4c4,1.2,6,1.5,8,1.9c1,0.2,1.9,0.4,3,0.7c0.6,0.1,1.2,0.3,1.9,0.4
					c0.7,0.1,1.5,0.3,2.4,0.4c3.1,0.7,5.5,1.4,7.2,1.9c1.7,0.4,2.7,0.7,2.7,0.7c6.7,3.6,6.8,3.6,5.6,4.9c-0.4,0.1-0.9,0.2-1.4,0.3
					c0.7,0.1,1.3,0.2,1.9,0.3c0.6,0.1,1.1,0.1,1.5,0.2c0.9,0.1,1.5,0.2,2,0.2c1,0.1,1.5,0.2,2.3,0.3c1.6,0.3,2.7,0.6,2.7,0.6
					c0.2,0.7,0.2,0.7,1.2,1c0.3,0.3,0.2,0.6,0.2,0.6c-3.3,0.8-3.3,0.7-3.4,1c-0.8,0.2-1.9,0.4-1.9,0.4c-3.7,0.2-5.3,0.2-5.9,0.2
					c-8-2.5-8-2.5-8-2.5c-0.9,0.3-1.4,0.4-1.6,0.4c-0.2,0.1-0.2,0.1-0.2,0.1c-1.8-1.1-1.8-1.1-1.8-1.1c1,0.9,1,0.9,1,0.9
					c-4-1-4-1-4-1c4.5,1.3,4.5,1.3,4.5,1.3c-4.8-0.8-7.2-1.1-8.9-1.4c-1.7-0.3-2.7-0.5-4.5-0.8c-2-0.4-3.8-0.7-5.2-1
					c-1.4-0.3-2.4-0.5-2.6-0.5c0.3,0.3,0.3,0.5,0.3,0.5c-2.6-0.7-4.4-1.2-6-1.6c-1.6-0.4-2.8-0.9-4-1.2c-1.2-0.4-2.5-0.8-3.9-1.3
					c-0.8-0.3-1.6-0.5-2.6-0.8c-0.9-0.4-2-0.7-3.2-1.2c-0.8-0.5-1.5-0.9-2.1-1.3c-1-0.1-2.9-0.6-4.7-1.4c-1.7-0.7-3.3-1.4-4.8-2.1
					c-0.4-0.1-0.8-0.2-1.1-0.3v0.1c-1.8-0.5-3-1-4.2-1.4c-0.4-0.2-0.4-0.2-0.4-0.2l0,0c-1.5-0.5-3.3-1.1-6.1-2.2
					c-1.4-0.6-3.1-1.3-5-2.1c-1-0.4-2.1-0.9-3.3-1.4c-1.2-0.5-2.4-1.1-3.7-1.8c-1.4-0.9-2.7-1.7-3.8-2.5c-1.3-0.8-2.4-1.7-3.6-2.5
					c0.7,0.6,1.4,1.2,2,1.7c1.3,1.1-0.4,0.9,0.4,1.5c9.3,6.4,19.6,12.2,30.7,17c11,4.7,22.9,8.5,34.8,11.1c2.2,0.4,4.2,0.8,5.8,1.3
					c1.6,0.4,2.8,0.8,3.1,1.1c0.2,0.3-0.4,0.5-1.8,0.6c-1.3,0.1-3.3-0.2-5.4-0.5c-12.5-1.3-25.6-4-38.7-8.7
					c-13-4.5-25.8-10.8-37.8-18.6c-11.9-7.7-23-17-32.5-27c-9.7-10.1-17.9-21-24.4-32.2C39.2,309,33,296.8,28,284.1
					c0.1,0.7,0.3,1.3,0.4,2c-1.2-3.4-2.3-6.7-3.5-10.1c-0.1-0.4-0.2-0.7-0.4-1.1c0.5,2.7,1.1,5.3,1.7,8c0.3,0.9,0.6,1.8,0.9,2.7
					c0.3,0.9,0.7,1.8,1,2.7c6.2,14.7,13.3,28.2,21.8,40.7c8.5,12.6,18.1,24.3,29.6,35c12.3,11.4,23.7,20.7,37.6,29
					c3.6,2,6,3.6,5.3,3.9c-0.7,0.2-4.3-1.2-7.9-3.2c-12.1-6.3-24-14-34.8-23.1c-10.8-9-20.8-19.2-29.3-30.2
					c-8.5-10.9-15.5-22.5-20.9-33.9c-5.4-11.4-9.2-22.9-11.5-33.2c-1.6-4.5-2.8-9.3-3.8-13.6c-0.5-2.2-0.9-4.3-1.2-6.5
					c-0.3-2.1-0.7-4.1-0.8-6c0-0.1,0-0.3-0.1-0.4c0,2.1,0.1,3.9,0.2,6c-0.3-1.8-0.6-3.4-0.8-4.8c-0.1-1.5-0.2-2.9-0.3-4.2
					c-0.1-2.7-0.4-5.3-0.6-8.6c-0.4,0.8-0.8,1.8-1.1,2.7c-0.2-2.3-0.5-4.4-0.7-6.7c-0.1-1.1-0.2-2.3-0.4-3.4
					c-0.1-1.1-0.1-2.3-0.2-3.4c-0.1-2.3-0.3-4.5-0.4-6.8s-0.1-4.5-0.1-6.8c-0.1-4.5,0.2-9.2,0.3-13.7c0.1-2.3,0.4-4.5,0.5-6.8
					c0.2-2.3,0.4-4.5,0.7-6.8c2.4-18,7-35.5,14-50.4c0.5-1.2,1-2.4,1.5-3.5c2.2-6.7,4.7-13.4,7.8-20.2c0.7-1.7,1.7-3.4,2.5-5.1
					c0.9-1.7,1.8-3.5,2.8-5.1s2.1-3.5,3.1-5.1c1.1-1.7,2.1-3.6,3.4-5.2c-0.9,1.1-1.7,2.3-2.5,3.5c-0.8,1.2-1.6,2.4-2.4,3.6
					c-0.8,1.2-1.6,2.4-2.4,3.6c-0.8,1.2-1.5,2.5-2.3,3.6c5.6-10.9,12.2-21.3,20.8-31.4c1.5-1.7,3-3.4,4.4-5c1.5-1.7,3.2-3.3,4.7-4.9
					c3.2-3.3,6.6-6.2,10-9.3c1.7-1.5,3.5-2.9,5.2-4.2c0.9-0.7,1.8-1.4,2.7-2.1c0.9-0.7,1.8-1.3,2.7-2c1.8-1.3,3.6-2.6,5.3-3.7
					s3.6-2.3,5.3-3.5c7.1-4.4,14.1-7.9,20.4-10.6c3.2-1.3,6.2-2.4,9-3.4c1.4-0.5,2.8-0.9,4-1.2c1.3-0.3,2.5-0.6,3.6-0.9
					c15.3-7,31.6-11.9,48.1-14.9c16.6-3.1,33.5-3.7,50.3-2.6c8.4,0.5,16.8,1.8,25.1,3.3c8.3,1.8,16.5,3.7,24.5,6.4
					c8.1,2.6,15.9,5.8,23.6,9.4l5.7,2.9l2.9,1.4l2.8,1.6l5.5,3.1l5.4,3.4c3,1.8,5.3,3.9,5.6,4.6c0,0.3-0.5,0.2-1.4-0.3
					c-0.9-0.4-2.1-1.2-3.6-2.1c-20.4-12.7-43.2-21.8-66.9-26.7c-11.8-2.5-23.9-3.8-35.9-4.2c-12-0.4-24.1,0.4-36,2.2
					c10.1-1.5,20.1-1.8,30.2-1.5c10.1,0.2,20.1,1.5,30.1,3.3c10,1.8,19.7,4.4,29.4,7.7l3.6,1.3l1.8,0.6l1.8,0.7
					c2.4,1,4.7,1.9,7.1,2.9c4.6,2.1,9.3,4.1,13.8,6.6c1.2,0.6,2.4,1.2,3.6,1.8c1.2,0.6,2.3,1.3,3.5,1.9l3.5,2l1.7,1l1.7,1.1
					c2.2,1.4,4.3,2.8,6.5,4.2c2.1,1.5,4.1,3.1,6.2,4.6c21.1,15.5,38.5,34.7,52,56.5c13.4,21.8,22.9,46.3,27.6,72.7
					c3.8,22.6,4,44.3,0.8,65.7c-0.7,5.3-1.9,10.7-3,16c-0.7,2.7-1.4,5.2-2.1,7.9c-0.7,2.7-1.6,5.2-2.4,7.9
					c-3.4,10.5-7.6,20.9-12.9,31.3c-7.5,14.4-16.5,27.7-26.8,39.7c-10.4,11.9-22,22.6-34.7,31.8c-1.6,1.2-3.3,2.3-4.8,3.4
					c-1.7,1.1-3.3,2.2-4.9,3.3l-5,3.1c-1.7,1-3.4,2.1-5.1,3c-3.5,1.9-6.9,3.7-10.6,5.4c-1.8,0.9-3.6,1.7-5.4,2.6
					c-1.9,0.8-3.6,1.5-5.5,2.3c-7.3,3.1-15,5.4-22.7,7.6c-2,0.5-3.9,1-5.9,1.4l-3,0.7c-1,0.2-2,0.5-3,0.6c-2,0.4-4,0.7-6,1.1
					c-1,0.2-2,0.4-3.1,0.5l-3.1,0.4c-2.2,0.3-4.2,0.6-6.3,0.7c-2,0.2-3.8,0.1-5.4,0.1c-3.3-0.1-5.5-0.4-6-0.9
					c-0.6-0.5,0.7-1.1,3.2-1.7c1.2-0.3,2.8-0.6,4.5-0.9c0.9-0.1,1.8-0.3,2.8-0.4c1-0.2,2-0.3,3.1-0.5c33.1-4.7,64.8-17.9,91.1-37.6
					c1.7-1.3,3.3-2.5,4.9-3.7l4.7-3.9l2.4-2l2.3-2.1l4.5-4.1c5.8-5.7,11.5-11.6,16.7-18c2.7-3.2,5-6.4,7.5-9.7
					c0.6-0.8,1.2-1.7,1.8-2.5l1.7-2.6c1.1-1.7,2.4-3.4,3.4-5.1c2.1-3.6,4.3-6.9,6.2-10.6c1-1.8,2-3.6,3-5.4l2.7-5.5
					c0.4-0.9,0.9-1.9,1.3-2.8l1.2-2.9l2.4-5.6l2.2-5.7l1.1-2.9c0.4-1,0.6-2,1-3l1.9-5.8c0.6-2,1.1-3.9,1.6-5.9
					c1.1-3.9,1.9-8,2.8-11.9c0.5-2,0.8-4,1.1-6c0.3-2.1,0.7-4,1-6.1l0.7-6.1l0.3-3.1l0.2-3.1l0.4-6.1c0.1-2.1,0.1-4.1,0.1-6.1v-3.1
					c0-1,0-2.1,0-3.1l-0.2-6.2c-0.1-1-0.1-2.1-0.1-3.1l-0.3-3.1l-0.5-6.2l-0.8-6.1c-0.3-2.1-0.5-4.1-1-6.1l-1.2-6.1
					c-0.4-2.1-0.9-4-1.4-6.1l-0.7-3.1l-0.4-1.5l-0.4-1.5l-1.8-6c-0.5-2-1.3-3.9-2-5.9c-0.7-2-1.3-3.9-2.1-5.9
					c-1.6-3.8-3-7.8-4.8-11.6c-3.4-7.7-7.4-15.1-11.7-22.4C374,92,365.1,80.6,355.3,70.3c0,0.2,0,0.5-0.1,0.6
					c-0.4,0.4-1.8-0.2-3.6-1.5c5.5,5.8,10.9,11.7,15.8,18.2c2.5,3.2,4.7,6.5,7,9.9c0.6,0.8,1.1,1.7,1.7,2.6l1.6,2.6l1.6,2.6
					c0.5,0.9,1.1,1.7,1.5,2.7c12.1,18.9,20.8,40.2,25.5,62.8c4.7,22.6,5,46.5,0.5,70.2c-1.5,8.2-3.7,16-6.2,23.6
					c-2.7,7.5-5.5,14.8-9.1,21.7c-3.4,7-7.3,13.5-11.3,19.9c-1.1,1.6-2.2,3.2-3.3,4.6c-1.1,1.6-2.2,3.2-3.4,4.6
					c-2.4,3-4.5,6-7.1,8.9l-2.2,2.9l-1.1,1.5l-1.2,1.4l-4.6,5.5c-3.3,3.6-6.4,7.1-9.9,10.5c-1.7,1.7-3.4,3.4-5.2,4.9
					c-1.8,1.6-3.6,3.3-5.4,4.8l-5.6,4.5c-1.9,1.5-3.8,2.9-5.8,4.3c-15.6,11.4-33,20.4-51.6,26.7c-1.5,0.6-3.1,0.9-3.6,0.9
					c-0.6-0.1,0.2-0.5,1.7-1c25.2-9.2,49-23.7,68.7-42.4c-3.7,2.3-6.2,3.3-6.5,2.3c-0.4-1,1.5-3.8,4.8-7.6c-2.3,2-4.5,3.9-6.8,5.8
					c-2.4,1.9-4.7,3.7-7.1,5.5c-3.1,2.2-5.6,3.5-5.8,3.1c-0.2-0.5,1.9-2.6,4.7-4.5c19.5-14.4,36.1-32.7,48.5-53.6
					c7.1-12.7,12.9-26.1,16.9-40c3.9-13.9,6.3-28.3,6.9-42.8c-1,3.9-2,6.8-3.1,8.1l0,0c-0.6,4.3-1,8.8-1.8,13.1
					c-1.4,10-3.6,19.9-6.8,29.7c-3.2,9.7-7.2,19.1-12.1,28.2c-4.8,9.1-10.6,17.9-17,25.9c-6.4,8.2-13.6,15.8-21.5,22.7
					c-15.7,13.9-33.8,25.2-53.7,32.8c-9.9,3.8-20.1,6.8-30.6,8.8c-2.7,0.5-5.2,1-7.9,1.4l-7.9,1c-2.7,0.2-5.3,0.4-8,0.6
					c-1.3,0.1-2.7,0.1-3.9,0.2l-3.9,0.1c-1.7,0-3.1-0.1-3.1-0.3c0-0.2,1.3-0.5,2.8-0.5c25.5-0.2,51.1-6,74-17h-0.1
					c-1,0.3-1.3,0.1-0.3-0.5c0.8-0.5,2.7-1.4,3.6-1.7c1.1-0.4,1.2-0.1,0.4,0.5c21.2-10.7,40-25.5,55.1-43.3
					c15.2-17.8,26.6-38.4,33.5-60.2c-7,20-17.7,38.8-31.3,55.1c-13.6,16.4-30.3,30.1-48.7,40.4l-2.9,1.9c-1,0.7-2,1.2-3,1.8
					c-2,1.2-3.9,2.5-6.1,3.6c-1.2,0.6-2.8,1.2-3.3,1.2c-0.4,0,0.4-0.6,1.5-1.2c1.2-0.6,2.3-1.2,3.5-1.9c-1.8,0.9-3.6,1.6-5.1,2.2
					c-1.6,0.6-3.1,1.1-4.2,1.4c-2.5,0.6-4.1,0.6-4.2,0c0-0.7,1.5-1.8,3.8-3.3c1.2-0.8,2.6-1.6,4.1-2.4c0.8-0.4,1.6-0.8,2.5-1.3
					c0.9-0.4,1.8-0.9,2.7-1.4c19.3-10,36.8-23.4,51.2-39.4l4.4-5.4c1.4-2,2.7-3.9,3.9-5.8c-10.4,13.1-22.7,24.7-36.2,34.2
					c-13.6,9.6-28.5,17.1-44.1,22.2c-2.7,0.9-5,1.4-5.2,1c-0.2-0.4,1.9-1.5,4.5-2.4c1.7-0.6,3.4-1.3,5-2.1c1.7-0.7,3.4-1.4,4.9-2.2
					l4.8-2.4c0.8-0.4,1.6-0.8,2.4-1.2l2.4-1.3l4.7-2.6l4.6-2.8l2.3-1.4l2.3-1.5l4.4-3.1l4.3-3.3l2.2-1.6c0.7-0.6,1.4-1.2,2.1-1.7
					l4.1-3.5l3.9-3.6l2-1.8c0.7-0.6,1.3-1.3,1.9-1.9l3.8-3.7c1.2-1.3,2.5-2.7,3.6-3.9l1.8-2c0.6-0.7,1.2-1.4,1.7-2.1l3.5-4.1
					c1.1-1.4,2.2-2.9,3.3-4.2l1.6-2.2c0.5-0.7,1-1.5,1.5-2.2l3.1-4.4c1-1.5,1.9-3.1,2.9-4.5l1.4-2.3c0.5-0.8,0.9-1.6,1.3-2.4
					l2.6-4.7c0.8-1.6,1.6-3.3,2.4-4.8c6.3-12.8,10.7-26.5,13.6-40.5c2-18.7,1-37.6-3.4-55.6c0.3,2.3,0.6,4.6,0.7,7
					c0.2,1.9,0.3,3.7,0.4,5.6c0.1,1.9,0.1,3.7,0.2,5.5c0,0.9,0.1,1.9,0.1,2.8c0,0.9,0,1.9,0,2.8c0,1.9,0,3.6,0,5.4
					c-0.1,1.8-0.2,3.6-0.3,5.4l-0.1,2.7l-0.3,2.7c-0.2,1.8-0.3,3.6-0.5,5.3c-0.3,1.8-0.5,3.6-0.8,5.3l-0.4,2.7
					c-0.1,0.9-0.3,1.8-0.5,2.6c-0.3,1.8-0.7,3.5-1,5.2c-0.4,1.7-0.8,3.5-1.2,5.1c-0.4,1.7-0.8,3.5-1.3,5.1c-0.5,1.7-1,3.4-1.5,5
					c-0.5,1.7-1.1,3.4-1.7,4.9c-1.1,3.4-2.5,6.5-3.6,9.9c-2.8,6.4-5.7,12.8-9.3,18.8c-1.7,3.1-3.6,6-5.5,9.1c-1,1.5-2.1,2.9-3.1,4.3
					c-1.1,1.5-2.1,3-3.2,4.3c-1.1,1.4-2.3,2.9-3.4,4.2c-1.1,1.4-2.4,2.8-3.6,4c-2.4,2.8-4.9,5.3-7.5,7.9c-1.3,1.3-2.7,2.5-4,3.7
					l-2.1,1.9c-0.7,0.6-1.4,1.2-2.2,1.8c-1.5,1.2-2.9,2.4-4.3,3.6c-1.5,1.1-3.1,2.3-4.5,3.4c-1.2,0.9-2.4,1.5-2.7,1.4
					c-0.3-0.1,0.5-0.8,1.7-1.7c1.5-1.1,3-2.2,4.3-3.3c1.5-1.1,2.8-2.3,4.1-3.5c2.8-2.3,5.3-4.7,7.9-7.2c4.9-5,9.8-10.2,13.9-15.7
					c8.6-10.9,15.5-22.9,21.3-35.9c9.5-21.6,13.5-44,13-65.4c-0.6,21.9-5.1,43.3-13.8,63.1c-8.6,19.8-21.3,38.1-37.7,53.2
					c-1.4,1.4-3,2.6-4,3.2c0,0.2-0.2,0.5-0.7,0.9c-3.9,3.9-8.6,8-13.7,11.6c-1,0.7-2.3,1.5-3,1.6C301,346.3,301.5,345.7,302.6,344.9
					z M63.3,318.8c0.2,0.5,0.4,0.9,0.6,1.2c-0.7-1.2-1.5-2.6-2.3-3.9c0,0,0,0-0.3-0.8c-0.1-0.4-0.4-1-0.7-1.9s-0.8-2-1.2-3.6
					c0,0,0.4,1.2,1.2,2.8C61.4,314.4,62.4,316.6,63.3,318.8z M125.8,365.6L125.8,365.6c0.7,0.8,1.4,1.4,1.9,1.9
					c0.5,0.5,0.8,0.7,0.8,0.7C127.2,367.1,126.5,366.3,125.8,365.6z M227.5,8.8c-14.3-0.9-28.5-0.4-42.7,1.6c-14.1,2-28,5.3-41.5,10
					c3.3-1.4,6.5-2.5,9.8-3.6l2.5-0.9c0.8-0.3,1.7-0.5,2.5-0.8l5-1.5c10.6-2.6,21.3-4.2,32.1-5C206,7.7,216.8,7.9,227.5,8.8z
					 M96.7,362c-5.3-5.2-9-9.9-12.1-14.4c-1.8-1.6-3.6-3.3-5.5-4.9c-1.8-1.8-3.6-3.6-5.2-5.5c-9.3-10.2-17.1-21.1-23.5-32.5
					c0.3,1.8-1.2-1-2.1-2.4c-0.9-1.4-1.8-2.9-2.6-4.2c6.3,12.5,14,24.6,23.1,35.8C77,344,87.2,354,96.7,362z M187.9,397.7
					c0.4,0.1,0.7,0.2,1.2,0.4c0,0,0,0-2.8,0.6C186.3,398.7,187,398.3,187.9,397.7z M192.2,396.8c-0.6-0.1-1.3-0.3-2-0.4
					C191.1,396.2,191.6,396.4,192.2,396.8z M174.4,392.5c1,0.5,1.6,0.8,2.5,1.1C174.4,392.5,174.4,392.5,174.4,392.5z M169.5,363.3
					c0,0-1.8,0.7-3.6,1.4c-1.9,0.6-3.6,1.2-3.6,1.2s2-0.5,3.9-1c2-0.6,3.8-1.2,3.8-1.2L169.5,363.3z"/>
			</g>
		</g>
	</g>
</g>
</svg>
